<?xml version="1.0" encoding="UTF-8" standalone="no"?>
<!-- Created with Inkscape (http://www.inkscape.org/) -->
<svg
   xmlns:dc="http://purl.org/dc/elements/1.1/"
   xmlns:cc="http://creativecommons.org/ns#"
   xmlns:rdf="http://www.w3.org/1999/02/22-rdf-syntax-ns#"
   xmlns:svg="http://www.w3.org/2000/svg"
   xmlns="http://www.w3.org/2000/svg"
   xmlns:xlink="http://www.w3.org/1999/xlink"
   xmlns:sodipodi="http://sodipodi.sourceforge.net/DTD/sodipodi-0.dtd"
   xmlns:inkscape="http://www.inkscape.org/namespaces/inkscape"
   version="1.0"
   width="500.00006"
   height="500.00021"
   id="svg1872"
   sodipodi:version="0.32"
   inkscape:version="0.46"
   sodipodi:docname="edyuk.svg"
   sodipodi:docbase="/mnt/hda1/Projects"
   inkscape:output_extension="org.inkscape.output.svg.inkscape">
  <metadata
     id="metadata42">
    <rdf:RDF>
      <cc:Work
         rdf:about="">
        <dc:format>image/svg+xml</dc:format>
        <dc:type
           rdf:resource="http://purl.org/dc/dcmitype/StillImage" />
      </cc:Work>
    </rdf:RDF>
  </metadata>
  <sodipodi:namedview
     inkscape:window-height="691"
     inkscape:window-width="1016"
     inkscape:pageshadow="2"
     inkscape:pageopacity="0.0"
     borderopacity="1.0"
     bordercolor="#666666"
     pagecolor="#ffffff"
     id="base"
     inkscape:zoom="1.0078851"
     inkscape:cx="372.04724"
     inkscape:cy="955.92956"
     inkscape:window-x="0"
     inkscape:window-y="0"
     inkscape:current-layer="svg1872"
     showgrid="false" />
  <defs
     id="defs1875">
    <inkscape:perspective
       sodipodi:type="inkscape:persp3d"
       inkscape:vp_x="0 : 526.18109 : 1"
       inkscape:vp_y="0 : 1000 : 0"
       inkscape:vp_z="744.09448 : 526.18109 : 1"
       inkscape:persp3d-origin="372.04724 : 350.78739 : 1"
       id="perspective2513" />
    <linearGradient
       id="linearGradient16181">
      <stop
         style="stop-color:#4fd24b;stop-opacity:1"
         offset="0"
         id="stop16183" />
      <stop
         style="stop-color:#f8f817;stop-opacity:1"
         offset="0.55555558"
         id="stop16185" />
      <stop
         style="stop-color:#ff1007;stop-opacity:1"
         offset="1"
         id="stop16187" />
    </linearGradient>
    <linearGradient
       id="linearGradient8201">
      <stop
         style="stop-color:#f8a717;stop-opacity:0.96470588"
         offset="0"
         id="stop8205" />
      <stop
         style="stop-color:#ff1007;stop-opacity:0.93103451"
         offset="1"
         id="stop8207" />
    </linearGradient>
    <linearGradient
       id="linearGradient3779">
      <stop
         style="stop-color:#4fd24b;stop-opacity:0.74137932"
         offset="0"
         id="stop3781" />
      <stop
         style="stop-color:#f8f817;stop-opacity:0.70689654"
         offset="0.5"
         id="stop3793" />
      <stop
         style="stop-color:#ff1007;stop-opacity:0.64655173"
         offset="1"
         id="stop3791" />
    </linearGradient>
    <linearGradient
       x1="0"
       y1="16.303684"
       x2="30.003166"
       y2="16.303684"
       id="linearGradient13540"
       xlink:href="#linearGradient3779"
       gradientUnits="userSpaceOnUse"
       gradientTransform="matrix(22,0,0,22,42.43506,153.1459)" />
    <radialGradient
       cx="291.63519"
       cy="831.16693"
       r="179.18968"
       fx="291.63519"
       fy="831.16693"
       id="radialGradient17947"
       xlink:href="#linearGradient16181"
       gradientUnits="userSpaceOnUse"
       gradientTransform="matrix(1,0,0,0.611461,0,322.9408)" />
    <linearGradient
       x1="0"
       y1="16.303684"
       x2="30.003166"
       y2="16.303684"
       id="linearGradient17962"
       xlink:href="#linearGradient3779"
       gradientUnits="userSpaceOnUse"
       gradientTransform="matrix(22,0,0,22,42.43506,153.1459)" />
    <radialGradient
       cx="291.63519"
       cy="831.16693"
       r="179.18968"
       fx="291.63519"
       fy="831.16693"
       id="radialGradient17964"
       xlink:href="#linearGradient16181"
       gradientUnits="userSpaceOnUse"
       gradientTransform="matrix(1,0,0,0.611461,0,322.9408)" />
    <radialGradient
       cx="291.63519"
       cy="831.16693"
       r="179.18968"
       fx="291.63519"
       fy="831.16693"
       id="radialGradient17966"
       xlink:href="#linearGradient16181"
       gradientUnits="userSpaceOnUse"
       gradientTransform="matrix(1,0,0,0.611461,0,322.9408)" />
    <radialGradient
       cx="291.63519"
       cy="831.16693"
       r="179.18968"
       fx="291.63519"
       fy="831.16693"
       id="radialGradient17968"
       xlink:href="#linearGradient16181"
       gradientUnits="userSpaceOnUse"
       gradientTransform="matrix(1,0,0,0.611461,0,322.9408)" />
    <radialGradient
       cx="291.63519"
       cy="831.16693"
       r="179.18968"
       fx="291.63519"
       fy="831.16693"
       id="radialGradient17970"
       xlink:href="#linearGradient16181"
       gradientUnits="userSpaceOnUse"
       gradientTransform="matrix(1,0,0,0.611461,0,322.9408)" />
    <radialGradient
       cx="291.63519"
       cy="831.16693"
       r="179.18968"
       fx="291.63519"
       fy="831.16693"
       id="radialGradient17972"
       xlink:href="#linearGradient16181"
       gradientUnits="userSpaceOnUse"
       gradientTransform="matrix(1,0,0,0.611461,0,322.9408)" />
    <radialGradient
       cx="291.63519"
       cy="831.16693"
       r="179.18968"
       fx="291.63519"
       fy="831.16693"
       id="radialGradient17974"
       xlink:href="#linearGradient16181"
       gradientUnits="userSpaceOnUse"
       gradientTransform="matrix(1,0,0,0.611461,0,322.9408)" />
    <linearGradient
       x1="0"
       y1="16.303684"
       x2="30.003166"
       y2="16.303684"
       id="linearGradient17976"
       xlink:href="#linearGradient3779"
       gradientUnits="userSpaceOnUse"
       gradientTransform="matrix(22,0,0,22,42.43506,153.1459)" />
    <linearGradient
       inkscape:collect="always"
       xlink:href="#linearGradient3779"
       id="linearGradient1378"
       gradientUnits="userSpaceOnUse"
       gradientTransform="matrix(23.12499,0,0,20.98402,30.93596,61.2471)"
       x1="0"
       y1="16.303684"
       x2="30.003166"
       y2="16.303684" />
    <linearGradient
       inkscape:collect="always"
       xlink:href="#linearGradient3779"
       id="linearGradient1387"
       gradientUnits="userSpaceOnUse"
       gradientTransform="matrix(23.12499,0,0,20.98402,30.93596,61.2471)"
       x1="0"
       y1="16.303684"
       x2="30.003166"
       y2="16.303684" />
    <linearGradient
       inkscape:collect="always"
       xlink:href="#linearGradient3779"
       id="linearGradient2278"
       gradientUnits="userSpaceOnUse"
       gradientTransform="matrix(23.12499,0,0,20.98402,30.93596,61.2471)"
       x1="0"
       y1="16.303684"
       x2="30.003166"
       y2="16.303684" />
    <linearGradient
       inkscape:collect="always"
       xlink:href="#linearGradient3779"
       id="linearGradient2280"
       gradientUnits="userSpaceOnUse"
       gradientTransform="matrix(23.12499,0,0,20.98402,30.93596,61.2471)"
       x1="0"
       y1="16.303684"
       x2="30.003166"
       y2="16.303684" />
    <linearGradient
       inkscape:collect="always"
       xlink:href="#linearGradient3779"
       id="linearGradient2283"
       gradientUnits="userSpaceOnUse"
       gradientTransform="matrix(23.12499,0,0,20.98402,30.93596,61.2471)"
       x1="0"
       y1="16.303684"
       x2="30.003166"
       y2="16.303684" />
    <linearGradient
       inkscape:collect="always"
       xlink:href="#linearGradient3779"
       id="linearGradient2292"
       gradientUnits="userSpaceOnUse"
       gradientTransform="matrix(23.12499,0,0,20.98402,30.93596,61.2471)"
       x1="0"
       y1="16.303684"
       x2="30.003166"
       y2="16.303684" />
    <linearGradient
       inkscape:collect="always"
       xlink:href="#linearGradient3779"
       id="linearGradient3187"
       gradientUnits="userSpaceOnUse"
       gradientTransform="matrix(23.12499,0,0,20.98402,30.93596,61.2471)"
       x1="0"
       y1="16.303684"
       x2="30.003166"
       y2="16.303684" />
    <linearGradient
       inkscape:collect="always"
       xlink:href="#linearGradient3779"
       id="linearGradient3189"
       gradientUnits="userSpaceOnUse"
       gradientTransform="matrix(23.12499,0,0,20.98402,30.93596,61.2471)"
       x1="0"
       y1="16.303684"
       x2="30.003166"
       y2="16.303684" />
  </defs>
  <g
     id="g3175"
     transform="matrix(0.675676,0,0,0.675676,-1.8752856,-2.6939693)"
     inkscape:export-filename="/mnt/hda1/Projects/edyuk-icon-128.png"
     inkscape:export-xdpi="23.039997"
     inkscape:export-ydpi="23.039997">
    <path
       d="M 2.7754214,375.16779 L 2.7754214,6.3485711 L 372.77528,6.3485711 L 742.77515,6.3485711 L 742.77515,375.16779 L 742.77515,743.98705 L 372.77528,743.98705 L 2.7754214,743.98705 L 2.7754214,375.16779 z"
       style="fill:#fafafa;fill-opacity:0"
       id="path1901" />
    <path
       d="M 94.529635,701.58957 C 59.55309,684.37124 30.935912,654.35713 30.935912,634.89152 C 30.935912,615.42591 83.048775,551.61659 146.74231,493.093 L 262.54875,386.68649 L 169.86731,304.56433 C 71.546612,217.44539 48.693524,147.02342 118.74271,147.02342 C 141.59897,147.02342 200.9921,184.8382 250.72747,231.05625 L 341.15539,315.08908 L 440.35847,226.74255 L 539.56151,138.39601 L 632.23022,220.50692 L 724.89895,302.61782 L 627.40794,392.75715 C 535.56024,477.67867 532.19801,484.96633 569.32366,518.65479 C 600.10287,546.58439 614.84199,548.86737 636.64554,529.08244 C 651.9989,515.15054 672.88572,503.75173 683.06071,503.75173 C 713.30318,503.75173 704.05427,583.399 672.65447,593.36538 C 651.46691,600.09038 654.55437,613.60583 684.21696,643.98039 C 763.11984,724.77712 713.88714,769.45175 624.8468,697.85389 C 591.37317,670.93755 576.47876,668.13593 569.06761,687.36189 C 558.08437,715.85461 470.31079,724.24724 470.31079,696.80469 C 470.31079,687.57173 482.87261,668.61866 498.22595,654.68676 C 520.02952,634.90184 517.51361,621.52732 486.73439,593.59772 C 449.60874,559.90926 440.96517,563.24387 337.413,651.20481 C 276.95995,702.55578 334.3563,645.19494 464.96045,523.73626 L 702.42252,302.90226 L 625.73448,235.45486 C 534.58316,155.28695 483.93054,144.27697 564.56099,222.15804 C 595.39523,251.94087 620.62323,282.63 620.62323,290.3561 C 620.62323,298.08221 628.42792,302.04285 637.96698,299.15755 C 666.34622,290.57362 657.77689,307.89956 619.31843,336.86223 C 599.52265,351.77019 586.51484,355.28714 590.41219,344.67762 C 594.30952,334.0681 587.092,322.45513 574.37325,318.87101 C 561.6545,315.2869 528.93201,293.33043 501.65662,270.07886 C 474.38123,246.82729 446.13407,236.51125 438.88517,247.15433 C 431.63627,257.7974 456.77016,293.51193 494.73827,326.51991 L 563.77123,386.53446 L 384.88882,549.81308 L 206.00644,713.09167 L 130.03365,646.27338 C 39.174398,566.36233 27.338542,591.55757 116.19986,675.72165 C 186.64027,742.43857 183.97394,745.62141 94.529635,701.58957 z M 701.56071,705.66929 C 701.56071,701.31183 683.34978,684.78692 661.09197,668.94726 C 624.41444,642.84585 623.59651,643.58805 652.36101,676.86988 C 682.57079,711.82397 701.56071,722.93985 701.56071,705.66929 z M 525.51976,378.9825 C 518.47253,372.5877 500.56597,367.35561 485.72745,367.35561 C 470.88891,367.35561 458.74829,356.02424 458.74829,342.17479 C 458.74829,291.85016 409.99847,269.21051 377.69304,304.53233 C 350.51424,334.24885 336.15362,328.11357 246.95645,248.67789 C 168.63828,178.93069 140.64967,164.97777 118.81089,184.79465 C 96.972096,204.61154 112.11351,229.79154 188.13563,300.08087 L 285.40196,390.01241 L 181.44152,482.59568 L 77.48111,575.17895 L 139.91665,634.31414 L 202.35223,693.44933 L 370.34258,542.02934 C 462.73728,458.74837 532.56701,385.37728 525.51976,378.9825 z M 168.81979,639.20092 C 151.33295,620.08131 134.98966,591.85084 132.50134,576.46651 C 128.04941,548.94193 187.80334,487.18692 221.71712,484.26301 C 231.25618,483.4406 239.80239,475.6856 240.70873,467.0297 C 241.61506,458.37379 258.14442,435.46146 277.44067,416.11343 C 309.27757,384.19105 303.23919,371.56704 212.19905,279.71731 L 111.87339,178.49945 L 218.10377,262.43552 C 276.53047,308.60036 323.35858,351.093 322.16623,356.8636 C 320.97389,362.63421 330.40458,369.71631 343.12333,372.60162 C 355.84208,375.48692 366.24832,368.87695 366.24832,357.9128 C 366.24832,333.5214 422.90785,279.65927 426.95143,300.20675 C 428.54127,308.2856 431.30218,321.97767 433.08678,330.63358 C 440.59406,367.04637 475.05379,398.64851 495.03366,387.44351 C 542.6521,360.73839 509.2992,396.00397 358.58742,531.71451 C 215.97389,660.13283 197.52269,670.5838 168.81979,639.20092 z M 435.0491,377.2719 C 416.2313,358.40355 408.66228,335.1361 418.22909,325.56643 C 427.7959,315.99677 422.44575,315.05483 406.33984,323.47327 C 390.23395,331.8917 382.31468,346.49989 388.74149,355.93592 C 395.16827,365.37197 384.93179,384.76133 365.99372,399.02339 C 347.05562,413.28545 331.56083,417.92057 331.56083,409.32365 C 331.56083,400.72672 316.06605,405.36185 297.12795,419.6239 C 278.18988,433.88596 267.66907,452.85789 273.74835,461.78369 C 279.82763,470.70949 269.30683,489.68142 250.36874,503.94348 C 231.43066,518.20554 215.93587,522.84066 215.93587,514.24374 C 215.93587,505.64681 201.314,509.62452 183.44281,523.08311 C 148.78805,549.18127 147.40429,580.70722 178.90369,626.49699 C 193.55626,647.79696 231.94653,624.67629 333.8234,533.19606 C 455.66802,423.78585 465.82893,408.13436 435.0491,377.2719 z M 188.2927,615.97088 C 173.48197,589.73745 178.91167,544.89794 196.16428,550.96577 C 215.46827,557.75508 308.11747,481.90105 301.73676,464.53115 C 299.0619,457.24945 307.27959,448.25809 319.99834,444.55038 C 332.71708,440.84265 360.30115,423.70261 381.29628,406.46139 C 402.2914,389.22016 425.2248,383.56423 432.2594,393.89267 C 439.29402,404.22109 389.53928,462.41695 321.69333,523.2168 C 253.84738,584.01663 193.81709,625.75598 188.2927,615.97088 z M 320.86765,499.15338 C 383.98325,438.91825 413.96632,405.88902 387.49667,425.7551 C 361.02705,445.62119 330.74149,454.77255 320.19543,446.09146 C 309.64939,437.41037 307.57159,440.73857 315.57809,453.48745 C 330.75035,477.64644 232.92356,575.12404 212.2932,556.40369 C 205.81751,550.52754 200.5192,559.88398 200.5192,577.19579 C 200.5192,594.50761 201.77758,608.67182 203.31559,608.67182 C 204.85361,608.67182 257.75203,559.38852 320.86765,499.15338 z M 575.74472,585.67415 C 600.54699,549.25865 523.04375,489.47536 489.95605,519.49971 C 469.45923,538.09887 470.09658,551.67737 492.62238,576.30645 C 527.5062,614.44742 554.10579,617.44513 575.74472,585.67415 z M 513.61106,550.96577 C 484.84656,517.68394 485.66449,516.94174 522.34202,543.04315 C 544.59982,558.88281 562.81075,575.40772 562.81075,579.76518 C 562.81075,597.03574 543.82084,585.91986 513.61106,550.96577 z M 549.6641,229.37109 C 528.05763,207.7066 500.68622,195.41731 488.83876,202.06154 C 476.99131,208.70577 484.97596,231.86743 506.58243,253.53192 C 528.18889,275.19641 555.5603,287.4857 567.40777,280.84146 C 579.25521,274.19723 571.27057,251.03557 549.6641,229.37109 z M 513.61106,236.2055 C 484.84656,202.92367 485.66449,202.18147 522.34202,228.28288 C 560.86242,255.69575 573.11245,272.92753 554.0798,272.92753 C 549.27776,272.92753 531.06683,256.40262 513.61106,236.2055 z"
       style="fill:#bfbfbf"
       id="path1899" />
    <path
       d="M 96.557633,699.74934 C 61.581082,682.53101 32.963904,652.05892 32.963904,632.03357 C 32.963904,612.00821 147.44485,492.06396 287.36601,365.49078 L 541.76812,135.35771 L 634.2775,219.30233 L 726.7869,303.24694 L 478.15661,523.23732 L 229.52634,743.2277 L 466.98842,522.14487 L 704.4505,301.06202 L 627.76244,233.61462 C 536.61113,153.44672 485.95852,142.43674 566.58896,220.3178 C 597.4232,250.10063 622.6512,280.78975 622.6512,288.51586 C 622.6512,296.24197 630.45589,300.20262 639.99495,297.31732 C 668.37419,288.73339 659.80485,306.05932 621.34639,335.02199 C 601.55061,349.92996 588.54281,353.4469 592.44015,342.83738 C 596.33748,332.22786 589.11996,320.61488 576.40122,317.03078 C 563.68247,313.44666 530.95999,291.4902 503.68459,268.23863 C 476.40919,244.98706 448.16204,234.67102 440.91314,245.3141 C 433.66424,255.95716 458.62459,291.52082 496.38063,324.34444 L 565.02793,384.02374 L 503.58214,442.22147 C 469.78695,474.23024 434.97143,496.40101 426.21426,491.48986 C 417.45711,486.57872 375.3832,515.24291 332.71664,555.18807 C 290.05011,595.13321 263.99844,627.8156 274.82406,627.8156 C 285.64967,627.8156 275.44143,646.93236 252.13907,670.29726 C 209.85462,712.69524 209.61979,712.64581 132.93003,645.19688 C 41.446591,564.73688 28.879406,589.25597 118.22785,673.88142 C 188.66827,740.59834 186.00194,743.78118 96.557633,699.74934 z M 252.73978,631.39321 C 236.03107,616.23143 405.87915,459.10162 426.48525,470.65781 C 435.28835,475.59472 466.62998,456.318 496.13331,427.82071 C 525.63666,399.32338 542.75867,374.82704 534.18225,373.38439 C 525.60581,371.94173 505.58093,369.58103 489.6825,368.13838 C 473.78407,366.69573 460.61691,356.07257 460.42214,344.53136 C 460.22739,332.99015 451.14567,310.77053 440.24053,295.15445 C 425.35097,273.83268 378.00992,304.98205 250.1505,420.22957 L 79.887982,573.69758 L 141.28474,631.84889 C 188.78847,676.84155 209.76983,684.66206 234.0065,666.40966 C 251.23525,653.43489 259.66523,637.67748 252.73978,631.39321 z M 169.5664,635.95966 C 152.78432,617.61061 137.01766,590.01061 134.52933,574.62628 C 130.0774,547.10169 189.83132,485.34668 223.74509,482.42277 C 233.28415,481.60037 241.83036,473.84537 242.7367,465.18946 C 245.73353,436.56821 315.51805,377.5935 341.07237,382.08625 C 354.87827,384.51347 366.64702,375.16803 367.22514,361.31858 C 368.41282,332.86724 424.5144,275.67749 428.97939,298.36652 C 430.56924,306.44537 433.33015,320.13744 435.11476,328.79335 C 443.28678,368.43041 478.02893,396.35689 502.84289,383.23466 C 517.86248,375.29191 510.26973,389.36 485.97011,414.49705 C 461.67048,439.63408 436.28763,455.20873 429.56376,449.10737 C 412.22136,433.3706 217.65381,610.38397 230.90628,629.84169 C 253.26162,662.66452 198.94552,668.08194 169.5664,635.95966 z M 208.8048,631.34442 C 196.86862,613.81937 418.51495,402.89607 438.53385,412.72942 C 472.89128,429.60589 474.24236,412.69672 441.1849,379.55049 C 420.1078,358.4168 410.69026,333.29586 420.25707,323.72618 C 429.82388,314.15653 424.47372,313.2146 408.36781,321.63303 C 392.26192,330.05146 384.34265,344.65965 390.76946,354.09569 C 397.19625,363.53173 386.95976,382.9211 368.02168,397.18315 C 349.08359,411.44522 333.5888,416.08033 333.5888,407.48342 C 333.5888,398.88649 318.09402,403.5216 299.15592,417.78367 C 280.21784,432.04573 269.69703,451.01765 275.77632,459.94346 C 281.85561,468.86926 271.3348,487.84119 252.3967,502.10324 C 233.45863,516.36531 217.96384,521.00042 217.96384,512.40351 C 217.96384,503.80658 203.34198,507.78429 185.4708,521.24287 C 167.59965,534.70146 154.88446,557.10401 157.21486,571.0263 C 162.44289,602.25992 193.50953,648.79962 209.13088,648.79962 C 215.49026,648.79962 215.34351,640.94478 208.8048,631.34442 z M 179.53887,583.75399 C 182.15271,567.59365 194.46918,551.33794 206.9088,547.63023 C 241.20496,537.40801 309.28104,477.70766 303.76473,462.69092 C 301.08986,455.40921 305.61348,449.45145 313.81721,449.45145 C 322.02097,449.45145 349.60503,432.31141 375.11516,411.36245 C 411.82009,381.2203 425.16211,379.03126 439.063,400.87045 C 448.72418,416.0488 447.75462,421.14186 436.90842,412.1884 C 426.0622,403.23494 362.64767,444.78548 295.98724,504.52291 C 229.32681,564.26036 176.92505,599.91435 179.53887,583.75399 z M 551.69207,227.53085 C 530.0856,205.86637 502.7142,193.57708 490.86673,200.2213 C 479.01929,206.86554 487.00393,230.02719 508.6104,251.69168 C 530.21687,273.35617 557.58827,285.64546 569.43574,279.00123 C 581.28318,272.35699 573.29854,249.19534 551.69207,227.53085 z M 515.63903,234.36527 C 486.87452,201.08343 487.69246,200.34123 524.36999,226.44265 C 562.8904,253.85551 575.14042,271.0873 556.10777,271.0873 C 551.30572,271.0873 533.09479,254.56238 515.63903,234.36527 z M 638.8387,707.55487 C 589.16302,662.4783 609.6247,641.17033 663.11994,682.26938 L 715.15117,722.24369 L 671.09833,675.02964 C 646.86929,649.06192 636.98336,627.8156 649.12959,627.8156 C 680.98129,627.8156 726.71367,673.58147 726.71367,705.45647 C 726.71367,739.68308 675.59025,740.90387 638.8387,707.55487 z M 472.33875,695.13669 C 472.33875,674.64683 664.34452,501.9115 687.12025,501.9115 C 728.68262,501.9115 696.07559,567.48424 620.3387,636.20921 C 543.23686,706.17276 472.33875,734.40146 472.33875,695.13669 z"
       style="fill:#2a90dc;fill-opacity:1"
       id="path1895" />
    <path
       d="M 94.529635,699.74934 C 59.55309,682.53101 30.935912,652.05892 30.935912,632.03357 C 30.935912,612.00821 145.41685,492.06396 285.33802,365.49078 L 539.74013,135.35771 L 632.2495,219.30233 L 724.75891,303.24694 L 640.50744,377.79341 L 476.12861,523.23732 L 227.49835,743.2277 L 464.96042,522.14487 L 702.4225,301.06202 L 625.73446,233.61462 C 553.93922,170.47046 498.01436,142.94438 526.50387,184.77358 C 533.47381,195.00709 526.28327,213.08973 510.5249,224.95721 C 483.40171,245.3834 468.49131,250.10328 431.08691,250.10328 C 422.23254,250.10328 448.39641,281.38073 489.22881,319.60872 L 563.46953,389.11417 L 504.83029,439.10261 C 431.60933,501.52161 352.23564,520.3679 411.08404,461.36149 C 441.96151,430.40111 443.03802,419.99056 417.36151,400.65385 C 393.24395,382.49117 359.50928,401.99569 265.2594,488.59539 C 171.02069,575.18483 150.82975,604.70567 174.26084,621.64292 C 190.82271,633.61475 223.48322,640.61696 246.83971,637.20343 C 287.47882,631.26405 287.55132,632.75652 248.52463,671.88796 C 208.37155,712.14886 206.55915,711.73757 130.90204,645.19688 C 39.418598,564.73688 26.851414,589.25597 116.19986,673.88142 C 186.64027,740.59834 183.97394,743.78118 94.529635,699.74934 z M 229.84109,664.53764 C 238.99022,650.11112 237.84729,645.41032 227.30125,654.09141 C 216.75519,662.7725 188.71256,653.93237 164.98427,634.44668 C 123.39359,600.29234 126.60821,594.64755 254.36545,477.496 C 378.78671,363.4035 389.43411,358.06393 428.51821,390.15985 C 462.25246,417.86246 464.81358,430.70608 442.02266,457.88266 C 426.554,476.32791 442.15909,468.56214 476.70061,440.62536 C 537.75082,391.24868 540.84349,365.51538 485.72743,365.51538 C 470.88889,365.51538 458.58891,356.07257 458.39415,344.53136 C 458.1994,332.99015 449.11768,310.77053 438.21253,295.15445 C 423.32298,273.83268 375.98193,304.98205 248.12251,420.22957 L 77.859989,573.69758 L 139.6619,632.23261 C 211.0719,699.86785 208.10834,698.80622 229.84109,664.53764 z M 158.12337,522.89551 C 181.14398,499.81309 205.18215,480.92748 211.54153,480.92748 C 217.9009,480.92748 204.26897,499.81309 181.24837,522.89551 C 158.22773,545.97793 134.18958,564.86355 127.83018,564.86355 C 121.47084,564.86355 135.10274,545.97793 158.12337,522.89551 z M 273.74833,417.97542 C 296.76894,394.893 320.80711,376.00739 327.16649,376.00739 C 333.52586,376.00739 319.89393,394.893 296.87333,417.97542 C 273.85271,441.05784 249.81454,459.94346 243.45514,459.94346 C 237.0958,459.94346 250.7277,441.05784 273.74833,417.97542 z M 435.62328,376.00739 C 413.14552,353.46927 383.13757,341.34036 368.93896,349.05426 C 354.74035,356.76812 357.61401,346.87446 375.32488,327.06829 C 404.74049,294.17266 435.10079,295.91147 435.97738,330.542 C 436.7597,361.448 474.82386,396.93722 495.03364,385.60327 C 506.87354,378.96327 516.56075,378.25196 516.56075,384.02257 C 516.56075,416.01596 471.02768,411.50686 435.62328,376.00739 z M 636.81071,707.55487 C 587.13503,662.4783 607.59672,641.17033 661.09195,682.26938 L 713.12318,722.24369 L 669.07034,675.02964 C 644.84129,649.06192 634.95536,627.8156 647.1016,627.8156 C 678.95329,627.8156 724.68568,673.58147 724.68568,705.45647 C 724.68568,739.68308 673.56226,740.90387 636.81071,707.55487 z M 470.31077,695.13669 C 470.31077,674.64683 662.31653,501.9115 685.09226,501.9115 C 726.65462,501.9115 694.04761,567.48424 618.31071,636.20921 C 541.20887,706.17276 470.31077,734.40146 470.31077,695.13669 z M 593.64404,327.04468 C 593.64404,311.65639 607.35383,299.06598 624.11023,299.06598 C 646.87675,299.06598 648.10925,306.13698 628.98703,327.04468 C 614.91286,342.43296 601.2031,355.02337 598.52085,355.02337 C 595.8386,355.02337 593.64404,342.43296 593.64404,327.04468 z"
       style="fill:url(#linearGradient3187);fill-opacity:1;stroke:none"
       id="path2018" />
    <path
       id="path9104"
       style="fill:#ea2922;fill-opacity:1;fill-rule:nonzero"
       d="M 161.08676,40.989482 C 170.14796,29.705879 175.68446,32.015562 185.66119,31.857724 C 195.62468,31.700096 203.8152,35.699697 206.80909,37.868109 C 209.80297,40.036521 209.76071,49.389909 207.2152,52.658151 C 204.66967,55.926392 188.21437,46.939815 181.48022,51.743658 C 174.51589,56.71171 177.75005,72.720951 184.3072,76.888749 C 187.71056,79.051963 202.93847,75.576962 209.57918,77.960746 C 216.21989,80.344521 214.2734,88.587072 211.35105,91.433411 C 205.50637,97.126079 190.70768,88.069721 184.97104,95.215408 C 182.10272,98.788233 180.17811,113.56293 184.37943,118.11944 C 188.43297,122.51569 199.33467,115.42719 206.50682,117.7701 C 212.81232,119.82991 213.4752,129.41981 206.73574,135.13753 C 199.81522,141.00888 178.31043,137.7844 165.54348,135.07256 C 152.68993,132.34232 163.38043,102.38324 163.22037,92.272047 C 163.06032,82.16085 147.62544,57.752383 161.08676,40.989482 z" />
    <path
       id="path9118"
       style="fill:#ea2922;fill-opacity:1;fill-rule:nonzero"
       d="M 245.94335,76.384713 C 256.35248,72.859932 264.57462,75.072926 271.21533,77.45671 C 277.85604,79.840485 275.54081,88.752207 272.98719,90.929375 C 266.73844,96.256931 254.57976,89.62993 246.60718,94.711372 C 241.52652,97.949607 233.46121,109.89376 243.4345,117.95 C 253.01892,125.69212 263.35772,122.6503 268.14296,117.26606 C 273.03787,111.75844 271.58399,96.280424 263.67464,92.273869 C 257.28062,89.034909 293.70277,-37.707396 287.16085,92.12306 C 286.45339,106.16312 286.71443,106.81643 287.18377,116.74842 C 288.9131,153.00907 276.30186,131.59941 269.47806,134.6335 C 260.75942,138.51008 245.85995,141.27248 231.60433,134.23393 C 213.3434,125.21781 218.78009,101.50777 224.85652,91.768011 C 230.88436,82.10612 235.85714,79.800139 245.94335,76.384713 z" />
    <path
       id="path9122"
       style="fill:#ea2922;fill-opacity:1;fill-rule:nonzero"
       d="M 328.83291,96.718904 C 331.3945,100.47875 314.93323,118.94836 326.02896,126.98387 C 336.71956,134.726 348.11493,127.58969 352.58105,119.27359 C 361.80826,102.09212 355.62428,89.276369 367.68481,88.360864 C 383.86069,87.132975 376.41907,109.66832 372.84338,128.42582 C 369.87328,144.00646 364.00938,159.69188 362.88153,163.21346 C 353.09442,193.77274 349.47307,205.01164 342.45729,208.38799 C 309.76377,224.12175 300.86679,194.3244 313.24101,197.34374 C 337.49214,203.26106 342.47653,177.7859 346.14993,169.25344 C 349.69868,161.01049 355.69917,146.36072 350.96635,145.3403 C 346.58176,144.39497 340.79647,152.63266 328.17664,151.50196 C 315.5568,150.37124 310.10292,144.35672 306.82428,136.91064 C 303.41821,129.17518 312.77319,110.91308 307.08225,93.775542 C 301.4211,76.727668 310.97115,70.50172 328.83291,96.718904 z" />
    <path
       id="path9126"
       style="fill:#ea2922;fill-opacity:1;fill-rule:nonzero"
       d="M 412.83956,97.819964 C 410.21088,101.54149 398.93987,120.04942 410.0356,128.08493 C 420.7262,135.82706 430.14035,127.54081 436.58769,120.37465 C 450.23961,105.2007 424.92528,83.140127 451.69146,89.461924 C 461.70712,91.827481 455.94559,109.15868 456.48129,128.18853 C 457.54687,166.04158 454.21068,130.2875 437.92279,142.09172 C 421.45357,154.02736 399.79389,147.39767 393.412,137.67711 C 387.12875,128.10681 395.30493,107.99909 391.08889,94.876602 C 386.97184,82.062178 425.21327,80.302057 412.83956,97.819964 z" />
    <path
       id="path12625"
       style="fill:#ea2922;fill-opacity:1;fill-rule:nonzero"
       d="M 490.23584,99.470347 C 486.04037,101.71667 479.28595,119.69228 490.38168,127.72779 C 501.07228,135.46992 480.13997,147.04053 473.75808,137.31997 C 467.47483,127.74967 468.83766,108.43932 471.43498,94.519464 C 474.09296,80.274463 473.29722,66.343641 472.62434,58.000691 C 467.58178,-4.5205228 494.37987,-23.376466 486.88145,59.187852 C 485.65487,72.693596 480.15898,88.993704 503.94762,56.696906 C 521.45142,32.932754 547.95184,34.687276 520.30018,60.653271 C 507.98677,72.216038 504.62082,81.386969 507.64948,85.027086 C 515.70918,94.713976 545.45425,135.53035 520.83836,137.32098 C 510.43362,138.07784 510.09072,88.839729 490.23584,99.470347 z" />
    <path
       d="M 94.529635,699.74934 C 59.55309,682.53101 30.935912,652.05892 30.935912,632.03357 C 30.935912,612.00821 145.41685,492.06396 285.33802,365.49078 L 539.74013,135.35771 L 632.2495,219.30233 L 724.75891,303.24694 L 640.50744,377.79341 L 476.12861,523.23732 L 227.49835,743.2277 L 464.96042,522.14487 L 702.4225,301.06202 L 625.73446,233.61462 C 553.93922,170.47046 498.01436,142.94438 526.50387,184.77358 C 533.47381,195.00709 526.28327,213.08973 510.5249,224.95721 C 483.40171,245.3834 468.49131,250.10328 431.08691,250.10328 C 422.23254,250.10328 448.39641,281.38073 489.22881,319.60872 L 563.46953,389.11417 L 504.83029,439.10261 C 431.60933,501.52161 352.23564,520.3679 411.08404,461.36149 C 441.96151,430.40111 443.03802,419.99056 417.36151,400.65385 C 393.24395,382.49117 359.50928,401.99569 265.2594,488.59539 C 171.02069,575.18483 150.82975,604.70567 174.26084,621.64292 C 190.82271,633.61475 223.48322,640.61696 246.83971,637.20343 C 287.47882,631.26405 287.55132,632.75652 248.52463,671.88796 C 208.37155,712.14886 206.55915,711.73757 130.90204,645.19688 C 39.418598,564.73688 26.851414,589.25597 116.19986,673.88142 C 186.64027,740.59834 183.97394,743.78118 94.529635,699.74934 z M 229.84109,664.53764 C 238.99022,650.11112 237.84729,645.41032 227.30125,654.09141 C 216.75519,662.7725 188.71256,653.93237 164.98427,634.44668 C 123.39359,600.29234 126.60821,594.64755 254.36545,477.496 C 378.78671,363.4035 389.43411,358.06393 428.51821,390.15985 C 462.25246,417.86246 464.81358,430.70608 442.02266,457.88266 C 426.554,476.32791 442.15909,468.56214 476.70061,440.62536 C 537.75082,391.24868 540.84349,365.51538 485.72743,365.51538 C 470.88889,365.51538 458.58891,356.07257 458.39415,344.53136 C 458.1994,332.99015 449.11768,310.77053 438.21253,295.15445 C 423.32298,273.83268 375.98193,304.98205 248.12251,420.22957 L 77.859989,573.69758 L 139.6619,632.23261 C 211.0719,699.86785 208.10834,698.80622 229.84109,664.53764 z M 158.12337,522.89551 C 181.14398,499.81309 205.18215,480.92748 211.54153,480.92748 C 217.9009,480.92748 204.26897,499.81309 181.24837,522.89551 C 158.22773,545.97793 134.18958,564.86355 127.83018,564.86355 C 121.47084,564.86355 135.10274,545.97793 158.12337,522.89551 z M 273.74833,417.97542 C 296.76894,394.893 320.80711,376.00739 327.16649,376.00739 C 333.52586,376.00739 319.89393,394.893 296.87333,417.97542 C 273.85271,441.05784 249.81454,459.94346 243.45514,459.94346 C 237.0958,459.94346 250.7277,441.05784 273.74833,417.97542 z M 435.62328,376.00739 C 413.14552,353.46927 383.13757,341.34036 368.93896,349.05426 C 354.74035,356.76812 357.61401,346.87446 375.32488,327.06829 C 404.74049,294.17266 435.10079,295.91147 435.97738,330.542 C 436.7597,361.448 474.82386,396.93722 495.03364,385.60327 C 506.87354,378.96327 516.56075,378.25196 516.56075,384.02257 C 516.56075,416.01596 471.02768,411.50686 435.62328,376.00739 z M 636.81071,707.55487 C 587.13503,662.4783 607.59672,641.17033 661.09195,682.26938 L 713.12318,722.24369 L 669.07034,675.02964 C 644.84129,649.06192 634.95536,627.8156 647.1016,627.8156 C 678.95329,627.8156 724.68568,673.58147 724.68568,705.45647 C 724.68568,739.68308 673.56226,740.90387 636.81071,707.55487 z M 470.31077,695.13669 C 470.31077,674.64683 662.31653,501.9115 685.09226,501.9115 C 726.65462,501.9115 694.04761,567.48424 618.31071,636.20921 C 541.20887,706.17276 470.31077,734.40146 470.31077,695.13669 z M 593.64404,327.04468 C 593.64404,311.65639 607.35383,299.06598 624.11023,299.06598 C 646.87675,299.06598 648.10925,306.13698 628.98703,327.04468 C 614.91286,342.43296 601.2031,355.02337 598.52085,355.02337 C 595.8386,355.02337 593.64404,342.43296 593.64404,327.04468 z"
       style="fill:url(#linearGradient3189);fill-opacity:1;stroke:none"
       id="path13549" />
  </g>
</svg>
